<?xml version="1.0" encoding="iso-8859-1"?>
<!-- Generator: Adobe Illustrator 19.0.0, SVG Export Plug-In . SVG Version: 6.00 Build 0)  -->
<svg version="1.1" id="Capa_1" xmlns="http://www.w3.org/2000/svg" xmlns:xlink="http://www.w3.org/1999/xlink" x="0px" y="0px"
	 viewBox="0 0 401.36 401.36" style="enable-background:new 0 0 401.36 401.36;" xml:space="preserve">
<g>
	<g>
		<path fill="#bd9f57" d="M281.23,197.616c-0.036-0.054-0.073-0.108-0.11-0.161l-53.04-77.68c-2.497-3.645-7.476-4.576-11.121-2.079
			c-0.815,0.559-1.52,1.263-2.079,2.079l-28.08,41.04l-14.48-20.88c-1.492-2.151-3.942-3.436-6.56-3.44
			c-2.618,0.004-5.068,1.289-6.56,3.44l-40,57.76c-2.541,3.614-1.671,8.604,1.943,11.146c3.614,2.541,8.604,1.671,11.146-1.943
			c0.038-0.054,0.075-0.108,0.111-0.162l33.2-48l11.36,16l-16,22.72c-2.541,3.615-1.671,8.605,1.944,11.145
			c3.615,2.541,8.604,1.671,11.145-1.944c0.038-0.053,0.074-0.107,0.111-0.161l46.88-68.16l46.88,68.16
			c2.452,3.676,7.419,4.668,11.095,2.216C282.69,206.259,283.682,201.292,281.23,197.616z"/>
	</g>
</g>
<g>
	<g>
		<circle fill="#bd9f57" cx="156.4" cy="110.815" r="15.68"/>
	</g>
</g>
<g>
	<g>
		<path fill="#bd9f57" d="M339.04,199.055c-0.72-12.4-1.12-25.04-1.12-38c-0.231-34.544,2.715-69.036,8.8-103.04c0.581-3.469-1.172-6.91-4.32-8.48
			h-0.88c-0.385-0.194-0.787-0.355-1.2-0.48h-0.4c-1.116-0.329-2.289-0.411-3.44-0.24c-44.301,12.053-90.098,17.71-136,16.8
			c-45.769,0.872-91.428-4.785-135.6-16.8h-0.96c-0.926-0.165-1.874-0.165-2.8,0c-0.847,0.188-1.657,0.512-2.4,0.96l-0.64,0.48
			c-1.16,1.068-2.109,2.343-2.8,3.76c0,0,0,0,0,0.48c-0.048,0.479-0.048,0.961,0,1.44c-0.057,0.532-0.057,1.068,0,1.6
			c-0.007,0.133-0.007,0.267,0,0.4c5.864,33.971,8.596,68.409,8.16,102.88c0,12.88,0,25.52-1.12,37.84
			c-40,13.68-62.32,32.8-62.32,54.24c0,45.12,91.44,70.64,183.2,73.52l-11.44,13.2c-2.791,3.425-2.277,8.464,1.148,11.255
			c3.277,2.67,8.065,2.331,10.932-0.775l22.64-26.16c0.182-0.281,0.342-0.575,0.48-0.88c0.267-0.327,0.508-0.675,0.72-1.04v-0.56
			c0.28-0.196,0.547-0.41,0.8-0.64c0.03-0.399,0.03-0.801,0-1.2c0.03-0.399,0.03-0.801,0-1.2c0.034-0.426,0.034-0.854,0-1.28v-0.56
			c-0.212-0.365-0.453-0.713-0.72-1.04c-0.138-0.305-0.298-0.599-0.48-0.88l-22.64-26.16c-2.791-3.425-7.83-3.939-11.255-1.148
			c-3.425,2.791-3.939,7.83-1.148,11.255c0.104,0.127,0.211,0.252,0.323,0.372l10.96,12.64c-99.12-3.12-166.72-32-166.72-57.52
			c0-12.72,16.64-26.16,45.12-36.8c-1.35,16.099-3.513,32.119-6.48,48c0,0,0,0,0,0.4c-0.057,0.532-0.057,1.068,0,1.6
			c-0.048,0.506-0.048,1.014,0,1.52c0,0,0,0,0,0.48c0.178,0.392,0.392,0.767,0.64,1.12c0.181,0.391,0.395,0.766,0.64,1.12
			c0.417,0.539,0.901,1.023,1.44,1.44l0.8,0.64c0.673,0.397,1.401,0.694,2.16,0.88h0.48h1.52h0.8c0.532,0.058,1.068,0.058,1.6,0
			c43.923-12.252,89.363-18.205,134.96-17.68c45.902-0.911,91.699,4.746,136,16.8c0.795,0.121,1.605,0.121,2.4,0h0.48h1.36h0.88
			c3.628-1.334,5.783-5.072,5.12-8.88c-2.964-15.881-5.127-31.901-6.48-48c28.24,10.64,44.72,24,44.72,36.72
			c0,19.76-42.16,44.8-122.8,54.32c-4.418,0.265-7.785,4.062-7.52,8.48c0.265,4.418,4.062,7.785,8.48,7.52h1.36
			c66.16-8,136.88-30.32,136.88-70.16C400.96,231.775,378.96,212.735,339.04,199.055z M321.92,160.815
			c-0.266,31.403,1.927,62.779,6.56,93.84c-41.947-9.788-84.93-14.436-128-13.84c-43.076-0.531-86.057,4.17-128,14
			c2.48-15.36,4.24-32,5.44-48.96c0.96-14.4,1.44-29.28,1.44-44.4c0.158-31.412-2.142-62.787-6.88-93.84
			c41.943,9.83,84.924,14.531,128,14c43.08,0.518,86.063-4.21,128-14.08C323.882,98.411,321.688,129.598,321.92,160.815z"/>
	</g>
</g>
<g>
</g>
<g>
</g>
<g>
</g>
<g>
</g>
<g>
</g>
<g>
</g>
<g>
</g>
<g>
</g>
<g>
</g>
<g>
</g>
<g>
</g>
<g>
</g>
<g>
</g>
<g>
</g>
<g>
</g>
</svg>
