<svg xmlns="http://www.w3.org/2000/svg" xmlns:xlink="http://www.w3.org/1999/xlink" viewBox="0 0 18 18">
  <defs>
    <style>
      .cls-1, .cls-3 {
        fill: #fff;
      }

      .cls-2 {
        clip-path: url(#clip-path);
      }

      .cls-3 {
        fill-rule: evenodd;
      }
    </style>
    <clipPath id="clip-path">
      <rect id="Rectangle_30" data-name="Rectangle 30" class="cls-1" width="18" height="18"/>
    </clipPath>
  </defs>
  <g id="Group_127" data-name="Group 127" class="cls-2">
    <path id="Path_136" data-name="Path 136" class="cls-3" d="M15.889,7.6H14.317a5.675,5.675,0,0,1,.175,1.381,5.524,5.524,0,0,1-11.048,0A5.675,5.675,0,0,1,3.619,7.6H2.048v7.6a.691.691,0,0,0,.7.683H15.19a.691.691,0,0,0,.7-.683Zm0-4.841a.7.7,0,0,0-.7-.7H13.127a.7.7,0,0,0-.7.7V4.841a.694.694,0,0,0,.7.7h2.079a.7.7,0,0,0,.7-.7V2.762Zm-6.9,2.762a3.46,3.46,0,1,0,3.46,3.46,3.458,3.458,0,0,0-3.46-3.46m6.9,12.444H2.079A2.076,2.076,0,0,1,0,15.889V2.079A2.066,2.066,0,0,1,2.079,0H15.9a2.076,2.076,0,0,1,2.079,2.079V15.9a2.108,2.108,0,0,1-2.1,2.063"/>
  </g>
</svg>
