<svg id="Group_226" data-name="Group 226" xmlns="http://www.w3.org/2000/svg" viewBox="0 0 146.514 34.662">
  <defs>
    <style>
      .cls-1 {
        fill: #fff;
      }

      .cls-2 {
        fill: #bd9f57;
      }
    </style>
  </defs>
  <g id="Group_101" data-name="Group 101" transform="translate(37.214 10.252)">
    <path id="Path_122" data-name="Path 122" class="cls-1" d="M11.164,14.834v3.894H0V1H11.052V4.894H4.043v2.93h6.342v3.857H4.043v3.153Z" transform="translate(0 -0.629)"/>
    <path id="Path_123" data-name="Path 123" class="cls-1" d="M46.907,18.728l-3-5.118-3,5.118H36.3L41.6,9.6,36.523,1h4.636L43.9,5.71,46.648,1h4.636L46.2,9.642l5.3,9.124h-4.6Z" transform="translate(-22.837 -0.629)"/>
    <path id="Path_124" data-name="Path 124" class="cls-1" d="M80.7,9.235a9.235,9.235,0,1,1,18.47,0,9.235,9.235,0,1,1-18.47,0Zm14.427,0a5.193,5.193,0,1,0-10.385,0,5.193,5.193,0,1,0,10.385,0Z" transform="translate(-50.77)"/>
    <path id="Path_125" data-name="Path 125" class="cls-1" d="M147.166,4.894H142.6V18.765h-4.043V4.894H134V1h13.2V4.894Z" transform="translate(-84.301 -0.629)"/>
    <path id="Path_126" data-name="Path 126" class="cls-1" d="M181.843,1V18.765H177.8V1Z" transform="translate(-111.857 -0.629)"/>
    <path id="Path_127" data-name="Path 127" class="cls-1" d="M198.3,9.235A9.008,9.008,0,0,1,207.535,0a8.787,8.787,0,0,1,7.6,4.117l-3.486,2.04a4.576,4.576,0,0,0-4.117-2.188,4.926,4.926,0,0,0-5.192,5.267,4.907,4.907,0,0,0,5.192,5.267,4.576,4.576,0,0,0,4.117-2.188l3.486,2.04a8.787,8.787,0,0,1-7.6,4.117A8.987,8.987,0,0,1,198.3,9.235Z" transform="translate(-124.753)"/>
    <path id="Path_128" data-name="Path 128" class="cls-1" d="M260.043,15.947h-6.6l-.89,2.782H248.1L254.145,1h5.192l6.045,17.765h-4.451Zm-1.224-3.783-2.077-6.528-2.077,6.528Z" transform="translate(-156.083 -0.629)"/>
  </g>
  <path id="Path_212" data-name="Path 212" class="cls-2" d="M24.394,4.7a.591.591,0,0,0-.6-.233l-7,1.43L12.707.233h0c-.017-.017-.033-.05-.066-.066a.058.058,0,0,1-.017-.033L12.59.1a.086.086,0,0,0-.066-.033A.016.016,0,0,1,12.507.05c-.033-.017-.05-.033-.083-.033h0c-.033,0-.05-.017-.083-.017h-.166c-.033,0-.05.017-.083.017h0c-.033.017-.05.017-.083.033a.016.016,0,0,0-.017.017c-.017.017-.05.017-.067.033s-.033.017-.033.033a.206.206,0,0,0-.05.033c-.017.017-.033.05-.066.066h0L7.686,5.918l-7-1.446a.591.591,0,0,0-.6.233.581.581,0,0,0-.017.632l4.9,7.681L3.164,14.064c-.017.017-.033.017-.05.033H3.1c-.033.017-.05.05-.066.066l-.017.017c-.017.033-.05.05-.066.083h0l-.05.1a.016.016,0,0,1-.017.017.211.211,0,0,0-.017.1V29.11c0,.033.017.066.017.1a.016.016,0,0,0,.017.017.5.5,0,0,0,.1.183l.017.017.066.066H3.1c.017.017.033.017.05.033l4.771,2.743h0l4.04,2.311a.522.522,0,0,0,.565,0l4.322-2.494h0l4.472-2.577c.017-.017.033-.017.05-.033a.016.016,0,0,0,.017-.017c.033-.017.05-.05.066-.066l.017-.017a.4.4,0,0,0,.1-.183.016.016,0,0,1,.017-.017.211.211,0,0,0,.017-.1V14.447c0-.033-.017-.066-.017-.1,0-.017,0-.017-.017-.017a.5.5,0,0,0-.1-.183l-.017-.017-.066-.066h-.017c-.017-.017-.033-.017-.05-.033l-1.812-1.047,4.9-7.664A.525.525,0,0,0,24.394,4.7Zm-4.522,9.858L16.78,16.342,13.472,14.4l3.092-1.762Zm.582,13.449-3.092-1.779V17.339l3.092-1.779Zm-3.89,2.909-3.026-1.712L16.8,27.231l3.076,1.779ZM4.611,29.01,7.7,27.231l3.524,2.028L8.218,31.088ZM4.045,15.561l3.092,1.779v8.894L4.045,28.012Zm4.023-3.009,3.059,1.8L7.7,16.342,4.611,14.563Zm4.173-2.394L15.4,11.986l-3.076,1.729L9.216,11.887ZM8.285,26.234V17.339l4.007-2.278,3.923,2.261v8.894l-3.923,2.278ZM12.823,9.16v-6.8l3.159,4.372-.2,4.123Zm-1.147,0-2.959,1.7-.2-4.14,3.159-4.372ZM1.785,5.885,7.37,7.032,7.586,11.5l-1.613.931Zm10.457,27.53L9.349,31.753l3.059-1.845L15.4,31.6Zm6.267-20.98L16.9,11.5l.216-4.472L22.7,5.885Z" transform="translate(0.013)"/>
</svg>
