<?xml version="1.0" encoding="utf-8"?>
<!-- Generator: Adobe Illustrator 22.1.0, SVG Export Plug-In . SVG Version: 6.00 Build 0)  -->
<svg version="1.1" id="Layer_1" xmlns="http://www.w3.org/2000/svg" xmlns:xlink="http://www.w3.org/1999/xlink" x="0px" y="0px"
	 viewBox="0 0 490.3 490.3" enable-background="new 0 0 490.3 490.3" xml:space="preserve">
<g>
	<path fill="#bd9f57" d="M383.224,476.724c-3.713,0-7.426-1.146-10.58-3.438l-128.208-93.149l-128.209,93.149c-6.309,4.584-14.852,4.584-21.16,0
		c-6.309-4.584-8.949-12.708-6.539-20.125l48.972-150.718L9.29,209.294c-6.309-4.584-8.949-12.708-6.539-20.125
		c2.41-7.416,9.321-12.438,17.119-12.438h158.475l48.971-150.718c2.41-7.417,9.321-12.438,17.119-12.438s14.709,5.021,17.119,12.438
		l48.972,150.718H469c7.798,0,14.709,5.021,17.119,12.438c2.409,7.417-0.23,15.541-6.539,20.125l-128.209,93.149l48.972,150.718
		c2.409,7.417-0.23,15.541-6.539,20.125C390.649,475.578,386.937,476.724,383.224,476.724z M75.268,212.732l93.971,68.274
		c6.309,4.584,8.949,12.708,6.539,20.125l-35.894,110.468l93.971-68.273c6.309-4.585,14.85-4.584,21.161,0l93.97,68.273
		l-35.894-110.468c-2.409-7.417,0.23-15.541,6.539-20.125l93.971-68.274H297.447c-7.798,0-14.709-5.021-17.119-12.438
		L244.435,89.825l-35.894,110.469c-2.41,7.417-9.321,12.438-17.119,12.438H75.268z"/>
</g>
</svg>
