<svg xmlns="http://www.w3.org/2000/svg" viewBox="0 0 18 18.044">
  <defs>
    <style>
      .cls-1 {
        fill: #fff;
      }
    </style>
  </defs>
  <g id="viber" transform="translate(-0.621)">
    <path id="Path_26" data-name="Path 26" class="cls-1" d="M256.278.124c.155-.124.248-.124.744-.124a7.066,7.066,0,0,1,.837.062,7.219,7.219,0,0,1,2.572.713,8.259,8.259,0,0,1,2.231,1.549,6.9,6.9,0,0,1,1.518,2.045,9.473,9.473,0,0,1,.961,3.966c.031.5,0,.62-.124.775a.555.555,0,0,1-.9-.093c-.062-.093-.062-.186-.093-.589a10.437,10.437,0,0,0-.155-1.518,6.885,6.885,0,0,0-2.758-4.493,6.967,6.967,0,0,0-4-1.363c-.589,0-.682,0-.806-.124a.551.551,0,0,1-.031-.806" transform="translate(-246.529)"/>
    <path id="Path_27" data-name="Path 27" class="cls-1" d="M265.6,65.934a5.848,5.848,0,0,0-2.293-.682.782.782,0,0,1-.558-.217.474.474,0,0,1-.062-.62c.155-.248.4-.279,1.115-.155a5.788,5.788,0,0,1,4.121,2.417,5.378,5.378,0,0,1,.93,2.572,6.192,6.192,0,0,1,0,1.084.493.493,0,0,1-.279.279.561.561,0,0,1-.5-.031c-.217-.124-.31-.279-.31-.775a4.349,4.349,0,0,0-.558-2.169,4.268,4.268,0,0,0-1.611-1.7" transform="translate(-252.783 -61.937)"/>
    <path id="Path_28" data-name="Path 28" class="cls-1" d="M279.084,135.293a.558.558,0,0,1-.682,0c-.155-.093-.186-.217-.217-.527a3.162,3.162,0,0,0-.217-.93,1.64,1.64,0,0,0-1.487-.93c-.372-.031-.465-.093-.589-.217a.539.539,0,0,1,.155-.806c.124-.062.155-.062.4-.031a2.408,2.408,0,0,1,.5.062,3.064,3.064,0,0,1,1.425.682,2.688,2.688,0,0,1,.868,1.8c.062.527.031.744-.155.9" transform="translate(-265.494 -127.206)"/>
    <path id="Path_29" data-name="Path 29" class="cls-1" d="M18.579,22.87a1.034,1.034,0,0,0-.279-.713,18.652,18.652,0,0,0-2.076-1.642c-.465-.31-1.177-.744-1.487-.9a1.676,1.676,0,0,0-1.27-.124,1.514,1.514,0,0,0-.217.093c-.186.093-.341.279-.713.713a5.078,5.078,0,0,1-.5.589.03.03,0,0,0-.031.031,1.029,1.029,0,0,1-.186.093h0c-.4.186-.93.062-1.8-.341a8.288,8.288,0,0,1-1.952-1.363,8.126,8.126,0,0,1-1.487-1.7,4.6,4.6,0,0,1-.744-2.045,1.452,1.452,0,0,1,.186-.651h0l.031-.031.031-.031c.031-.031.062-.062.093-.062.124-.093.279-.248.434-.372.713-.558.868-.744.961-1.054a1.717,1.717,0,0,0-.31-1.27A15.009,15.009,0,0,0,4.6,8.741c-.093-.062-.248-.124-.341-.186a2.3,2.3,0,0,0-.775-.062,4.712,4.712,0,0,0-1.394.837A6.592,6.592,0,0,0,.855,10.507c-.341.589-.31,1.054.093,2.2a20.7,20.7,0,0,0,1.425,3.037h0l.031.031c.124.186.248.4.372.589,0,.031.031.031.031.062.124.186.248.4.372.589.062.062.093.155.155.217a3.758,3.758,0,0,0,.31.434c.155.217.31.434.5.651a23.582,23.582,0,0,0,6.228,5.67c.031.031.062.031.093.062l1.115.651c.062.031.093.062.155.093.372.217.775.4,1.177.589.031.031.093.031.124.062.4.186.837.372,1.27.558a1.977,1.977,0,0,0,1.115.217,1.448,1.448,0,0,0,.527-.093,2.381,2.381,0,0,0,.744-.372c.062-.031.093-.062.155-.093a.821.821,0,0,0,.186-.155,7.173,7.173,0,0,0,1.023-1.115,3.637,3.637,0,0,0,.465-.775c.031-.31.062-.527.062-.744" transform="translate(0 -8.183)"/>
  </g>
</svg>
