<svg id="whatsapp-logo" xmlns="http://www.w3.org/2000/svg" viewBox="0 0 22 22">
  <defs>
    <style>
      .cls-1 {
        fill: #fff;
      }
    </style>
  </defs>
  <path id="WhatsApp" class="cls-1" d="M22,10.717A10.818,10.818,0,0,1,5.979,20.1L0,22l1.949-5.75A10.6,10.6,0,0,1,.4,10.717a10.8,10.8,0,0,1,21.6,0ZM11.2,1.707a9.055,9.055,0,0,0-9.08,9.01A8.915,8.915,0,0,0,3.85,16L2.715,19.345,6.2,18.236A9.089,9.089,0,0,0,20.28,10.717,9.056,9.056,0,0,0,11.2,1.707Zm5.454,11.478c-.067-.109-.243-.175-.507-.307s-1.567-.767-1.809-.854-.42-.132-.6.131-.684.854-.838,1.03-.309.2-.574.066a7.246,7.246,0,0,1-2.129-1.3,7.92,7.92,0,0,1-1.473-1.819c-.154-.263-.016-.4.116-.536s.265-.307.4-.46a1.761,1.761,0,0,0,.264-.438.479.479,0,0,0-.022-.46c-.066-.131-.6-1.424-.816-1.95s-.441-.438-.6-.438-.331-.022-.507-.022a.977.977,0,0,0-.706.329,2.937,2.937,0,0,0-.926,2.191A5.083,5.083,0,0,0,7.013,11.06a10.822,10.822,0,0,0,4.522,3.966c2.692,1.051,2.692.7,3.177.657A2.678,2.678,0,0,0,16.5,14.434,2.19,2.19,0,0,0,16.654,13.185Z"/>
</svg>
