<svg xmlns="http://www.w3.org/2000/svg" viewBox="0 0 134.471 30">
  <defs>
    <style>
      .cls-1 {
        opacity: 0.995;
      }

      .cls-2 {
        fill: #fff;
      }

      .cls-3 {
        fill: #343434;
      }
    </style>
  </defs>
  <g id="Group_85" data-name="Group 85" class="cls-1">
    <g id="Group_83" data-name="Group 83" transform="translate(47.118 1.165)">
      <g id="Group_82" data-name="Group 82">
        <path id="Path_100" data-name="Path 100" class="cls-2" d="M172.029,43.3a4.566,4.566,0,0,1-1.8-2.682,17.684,17.684,0,0,1-.529-4.8V33.1a16.6,16.6,0,0,1,.6-4.871,5.035,5.035,0,0,1,1.906-2.682,6.228,6.228,0,0,1,3.424-.847,5.977,5.977,0,0,1,3.353.847,4.9,4.9,0,0,1,1.835,2.682,16.273,16.273,0,0,1,.6,4.871v2.718a16.49,16.49,0,0,1-.565,4.835,4.9,4.9,0,0,1-1.835,2.682,6.193,6.193,0,0,1-3.459.847A6.668,6.668,0,0,1,172.029,43.3Zm4.765-2.965a8.809,8.809,0,0,0,.353-3V31.476a8.845,8.845,0,0,0-.353-2.965,1.267,1.267,0,0,0-2.435,0,8.846,8.846,0,0,0-.353,2.965v5.859a8.81,8.81,0,0,0,.353,3,1.24,1.24,0,0,0,1.235.918A1.217,1.217,0,0,0,176.794,40.335Z" transform="translate(-156.924 -17.147)"/>
        <path id="Path_101" data-name="Path 101" class="cls-2" d="M353.394,35.724v.953a25.566,25.566,0,0,0,.106,2.718,2.259,2.259,0,0,0,.459,1.306,1.239,1.239,0,0,0,1.059.424,1.324,1.324,0,0,0,1.306-.741,6.48,6.48,0,0,0,.388-2.471l3.635.212a3.643,3.643,0,0,1,.035.671,4.94,4.94,0,0,1-1.412,3.882,5.853,5.853,0,0,1-4.023,1.271c-2.082,0-3.529-.671-4.376-1.976S349.3,38.653,349.3,35.9V32.618c0-2.824.424-4.871,1.306-6.176s2.365-1.941,4.447-1.941a5.952,5.952,0,0,1,3.353.812,4.318,4.318,0,0,1,1.624,2.471,18.069,18.069,0,0,1,.459,4.659v3.212h-7.094Zm.529-7.906a2.7,2.7,0,0,0-.424,1.306,25.874,25.874,0,0,0-.106,2.753v1.341H356.5V31.876a26.8,26.8,0,0,0-.106-2.753,2.418,2.418,0,0,0-.459-1.306,1.274,1.274,0,0,0-.988-.388A1.071,1.071,0,0,0,353.924,27.818Z" transform="translate(-273.135 -17.018)"/>
        <path id="Path_102" data-name="Path 102" class="cls-2" d="M138.3,23.4,133.5,6h4.2l1.694,7.871q.635,2.912.953,4.976h.106c.141-.988.459-2.612.953-4.941L143.171,6h4.2L142.5,23.4v8.329h-4.165V23.4Z" transform="translate(-133.5 -5.047)"/>
        <path id="Path_103" data-name="Path 103" class="cls-2" d="M220.571,25.7V44.512h-3.318l-.353-2.294h-.106a4.344,4.344,0,0,1-4.059,2.612,3.21,3.21,0,0,1-2.753-1.235,6.516,6.516,0,0,1-.882-3.847V25.7h4.235V39.5a4.3,4.3,0,0,0,.282,1.8.952.952,0,0,0,.918.529,1.811,1.811,0,0,0,1.059-.353,1.72,1.72,0,0,0,.741-.847V25.7Z" transform="translate(-182.418 -17.794)"/>
        <path id="Path_104" data-name="Path 104" class="cls-2" d="M282.071,25.7V44.512h-3.318l-.353-2.294h-.106a4.344,4.344,0,0,1-4.059,2.612,3.21,3.21,0,0,1-2.753-1.235,6.516,6.516,0,0,1-.882-3.847V25.7h4.235V39.5a4.3,4.3,0,0,0,.282,1.8.952.952,0,0,0,.918.529,1.811,1.811,0,0,0,1.059-.353,1.72,1.72,0,0,0,.741-.847V25.7Z" transform="translate(-222.212 -17.794)"/>
        <path id="Path_105" data-name="Path 105" class="cls-2" d="M251.229,9.424h-4.2V31.729H242.9V9.424h-4.2V6h12.529Z" transform="translate(-201.571 -5.047)"/>
        <path id="Path_106" data-name="Path 106" class="cls-2" d="M321.771,14.206a4.762,4.762,0,0,0-1.235-2.576,3.37,3.37,0,0,0-2.365-.812,3.8,3.8,0,0,0-2.188.671,4.317,4.317,0,0,0-1.553,1.729h-.035V3.3H310.3V29.982h3.494l.423-1.765h.106a3.607,3.607,0,0,0,1.482,1.518,4.585,4.585,0,0,0,2.188.565,3.307,3.307,0,0,0,3.141-1.976,14.253,14.253,0,0,0,1.024-6.176V19.182A28.282,28.282,0,0,0,321.771,14.206Zm-3.882,7.659a24.43,24.43,0,0,1-.176,3.212,3.591,3.591,0,0,1-.565,1.659,1.375,1.375,0,0,1-1.059.494,1.748,1.748,0,0,1-.953-.247,2.038,2.038,0,0,1-.706-.741V15.582a2.887,2.887,0,0,1,.741-1.271,1.712,1.712,0,0,1,1.129-.494,1.144,1.144,0,0,1,.988.494,4.036,4.036,0,0,1,.494,1.694,28.448,28.448,0,0,1,.141,3.388v2.471Z" transform="translate(-247.9 -3.3)"/>
      </g>
    </g>
    <g id="Group_84" data-name="Group 84">
      <path id="Path_107" data-name="Path 107" class="cls-3" d="M41.965,4.694A5.368,5.368,0,0,0,38.188.918C34.835,0,21.424,0,21.424,0S8.012,0,4.659.882A5.479,5.479,0,0,0,.882,4.694C0,8.047,0,15,0,15s0,6.988.882,10.306a5.368,5.368,0,0,0,3.776,3.776C8.047,30,21.424,30,21.424,30s13.412,0,16.765-.882a5.368,5.368,0,0,0,3.776-3.776c.882-3.353.882-10.306.882-10.306S42.882,8.047,41.965,4.694Z"/>
      <path id="Path_108" data-name="Path 108" class="cls-2" d="M48.6,37.147V24.3l11.153,6.424Z" transform="translate(-31.447 -15.724)"/>
    </g>
  </g>
</svg>
